<svg width="12" height="12" viewBox="0 0 12 12" fill="none" xmlns="http://www.w3.org/2000/svg">
<path d="M11.8126 0.188247C11.725 0.100622 11.6139 0.0401975 11.4927 0.0142491C11.3715 -0.0116993 11.2454 -0.00206595 11.1295 0.0419894L0.414236 4.09781H0.412093C0.288545 4.14533 0.182677 4.22984 0.108949 4.33978C0.0352205 4.44972 -0.00277284 4.57974 0.000157621 4.71208C0.00308808 4.84443 0.0467995 4.97264 0.125322 5.07921C0.203844 5.18578 0.313349 5.26551 0.43888 5.30752L0.449862 5.311L4.12762 6.88152C4.19935 6.9033 4.27554 6.90588 4.34858 6.88901C4.42162 6.87213 4.48896 6.83639 4.54387 6.78536L10.4465 1.28518C10.4641 1.26759 10.485 1.25363 10.5079 1.24412C10.5309 1.2346 10.5556 1.2297 10.5804 1.2297C10.6053 1.2297 10.6299 1.2346 10.6529 1.24412C10.6759 1.25363 10.6968 1.26759 10.7144 1.28518C10.7319 1.30276 10.7459 1.32364 10.7554 1.34663C10.7649 1.36961 10.7698 1.39424 10.7698 1.41911C10.7698 1.44398 10.7649 1.46862 10.7554 1.4916C10.7459 1.51458 10.7319 1.53546 10.7144 1.55305L5.21407 7.45316C5.16303 7.50807 5.1273 7.57541 5.11042 7.64846C5.09355 7.7215 5.09613 7.79769 5.1179 7.86943L6.68892 11.5494C6.69053 11.5548 6.69213 11.5596 6.69401 11.5647C6.77972 11.813 6.99669 11.9882 7.25893 12H7.28572C7.4181 12.0007 7.54765 11.9617 7.65753 11.8878C7.7674 11.8139 7.85251 11.7087 7.9018 11.5859L11.957 0.873191C12.0017 0.757278 12.0118 0.630902 11.9862 0.509345C11.9606 0.387789 11.9003 0.27626 11.8126 0.188247Z" fill="#FDFDFD"/>
</svg>
