<svg width="12" height="12" viewBox="0 0 12 12" fill="none" xmlns="http://www.w3.org/2000/svg">
<path d="M9.67742 7.5C10.9626 7.5 12 8.505 12 9.75C12 10.995 10.9626 12 9.67742 12C8.39226 12 7.35484 10.995 7.35484 9.75C7.35484 9.57 7.37806 9.405 7.42452 9.2325L4.03355 7.5075C3.60774 7.965 3.00387 8.25 2.32258 8.25C1.03742 8.25 0 7.245 0 6C0 4.755 1.03742 3.75 2.32258 3.75C3.00387 3.75 3.60774 4.0425 4.03355 4.4925L7.42452 2.7675C7.37806 2.595 7.35484 2.43 7.35484 2.25C7.35484 1.005 8.39226 0 9.67742 0C10.9626 0 12 1.005 12 2.25C12 3.495 10.9626 4.5 9.67742 4.5C8.99613 4.5 8.39226 4.2075 7.96645 3.7575L4.57548 5.4825C4.66925 5.82152 4.66925 6.17848 4.57548 6.5175L7.96645 8.2425C8.39226 7.785 8.99613 7.5 9.67742 7.5Z" fill="#FDFDFD"/>
</svg>
